<svg fill="none" height="56" viewBox="0 0 54 56" width="54" xmlns="http://www.w3.org/2000/svg"><g fill="#0055dc"><path d="m1.47261 5.42874-1.47261 1.74532v42.26934l1.47261 1.7344 25.86339 4.4288 2.0726-1.7453v-51.11598l-2.0726-1.74532zm24.39079 46.33816-22.31823-3.8615v-39.26964l22.31823-3.81788z"/><path d="m44.2217 5.40698h-11.5191v3.54518h9.752v38.71324h-9.752v3.5452h11.5191l1.7781-1.7671v-42.26939z"/><path d="m20.3987 30.7576c.4819.0021.9536-.1384 1.3559-.4037.4022-.2653.717-.6436.9048-1.0873.1879-.4438.2403-.9331.1507-1.4066-.0895-.4735-.3171-.9099-.654-1.2543-.3369-.3445-.7682-.5817-1.2396-.6817-.4713-.1001-.9617-.0585-1.4095.1194-.4478.178-.833.4843-1.1072.8806-.2741.3963-.425.8647-.4336 1.3465-.0058.3236.0528.6452.1723.946.1195.3007.2976.5748.5239.8062.2264.2314.4964.4155.7945.5417.298.1261.6182.1918.9418.1932z"/></g></svg>