<svg fill="none" height="56" viewBox="0 0 61 56" width="61" xmlns="http://www.w3.org/2000/svg"><g fill="#0055dc"><path d="m61 30.4987-7.87-7.88-7.93 7.88 2.36 2.36 3.8-3.8c-.1605 4.6515-1.8684 9.1166-4.8531 12.6879-2.9847 3.5714-7.0757 6.0448-11.6248 7.0286-4.5492.9837-9.2966.4216-13.4903-1.5974-4.1936-2.019-7.5937-5.3795-9.6618-9.5491l-3.00002 1.49c2.40522 4.8474 6.36142 8.752 11.24002 11.0933s10.3997 2.9851 15.6861 1.829 10.0348-4.0458 13.4907-8.2098c3.4559-4.1641 5.421-9.3636 5.5832-14.7725l3.86 3.85z"/><path d="m13.39 23.7988-3.8 3.8c.15694-4.6261 1.8444-9.0693 4.7979-12.6333s7.0061-6.04725 11.5225-7.06056 9.2415-.49939 13.4344 1.4612c4.193 1.96056 7.617 5.25706 9.7352 9.37266l3-1.54c-2.4606-4.8001-6.4502-8.64376-11.3386-10.92386s-10.3971-2.86673-15.6561-1.66723-9.9685 4.11676-13.3848 8.29109c-3.41631 4.1742-5.34465 9.3677-5.4805 14.76l-3.85-3.86-2.37 2.37 7.88 7.89 7.88-7.88z"/></g></svg>