<svg width="54" height="54" viewBox="0 0 54 54" fill="none" xmlns="http://www.w3.org/2000/svg">
<path d="M27 0C21.6599 0 16.4397 1.58352 11.9996 4.55032C7.55949 7.51712 4.09883 11.7339 2.05526 16.6675C0.0116985 21.6012 -0.522991 27.03 0.51881 32.2674C1.56061 37.5049 4.13211 42.3159 7.90813 46.0919C11.6841 49.8679 16.4951 52.4394 21.7326 53.4812C26.9701 54.523 32.3989 53.9883 37.3325 51.9447C42.2661 49.9012 46.4829 46.4405 49.4497 42.0004C52.4165 37.5603 54 32.3401 54 27C53.9919 19.8416 51.1447 12.9788 46.083 7.91704C41.0212 2.85531 34.1584 0.00808095 27 0V0ZM48.5756 17.8609H41.36C40.5819 13.4185 38.8455 9.19895 36.2714 5.49567C41.8056 7.88871 46.21 12.3149 48.5756 17.8609V17.8609ZM50.438 27.0204C50.433 28.8898 50.2041 30.7519 49.7561 32.5669H41.9197C42.1259 30.7151 42.2279 28.8531 42.225 26.9898C42.2282 25.1265 42.1262 23.2646 41.9197 21.4127H49.7561C50.2073 23.241 50.4363 25.1169 50.438 27V27.0204ZM3.56202 27.0204C3.56123 25.1411 3.78675 23.2686 4.23371 21.4433H12.0803C11.6565 25.1629 11.6565 28.9186 12.0803 32.6381H4.23371C3.78185 30.793 3.5563 28.8997 3.56202 27V27.0204ZM15.3268 27.0204C15.3249 25.1556 15.4439 23.2927 15.683 21.4433H25.219V32.5669H15.683C15.4447 30.7209 15.3257 28.8614 15.3268 27V27.0204ZM28.781 3.84697C32.7501 5.12929 36.1289 10.6046 37.7064 17.8609H28.781V3.84697ZM25.219 3.84697V17.8609H16.2835C17.8711 10.6046 21.2499 5.08858 25.219 3.84697ZM25.219 36.1391V50.1429C21.2499 48.8504 17.8711 43.3852 16.2835 36.1391H25.219ZM28.781 50.1429V36.1391H37.7064C36.1289 43.3852 32.7501 48.8504 28.781 50.1429V50.1429ZM28.781 32.5771V21.3822H38.317C38.5526 23.2456 38.6716 25.1218 38.6732 27C38.6692 28.8612 38.5502 30.7204 38.317 32.5669L28.781 32.5771ZM17.6879 5.49567C15.1138 9.19895 13.3774 13.4185 12.5993 17.8609H5.41426C7.77696 12.3235 12.1682 7.89947 17.6879 5.49567V5.49567ZM5.41426 36.1391H12.6299C13.4098 40.5809 15.1461 44.8001 17.7184 48.5043C12.1896 46.1034 7.78775 41.6798 5.41426 36.1391V36.1391ZM36.3121 48.5043C38.8845 44.8001 40.6208 40.5809 41.4007 36.1391H48.6163C46.2472 41.6827 41.8439 46.1078 36.3121 48.5043V48.5043Z" fill="#0055DC"/>
</svg>
