<svg width="57" height="46" viewBox="0 0 57 46" fill="none" xmlns="http://www.w3.org/2000/svg">
<path d="M35.1615 2C30.7078 2.00347 26.3689 3.4136 22.7641 6.02917C19.1593 8.64474 16.4728 12.3321 15.0879 16.565H18.3183C19.796 12.7822 22.5046 9.60723 26.0073 7.55196C29.51 5.49668 33.6029 4.68087 37.6259 5.23605C41.649 5.79123 45.3679 7.68505 48.1831 10.6122C50.9982 13.5393 52.7456 17.3292 53.1436 21.3709C53.5415 25.4125 52.5667 29.4704 50.3765 32.8904C48.1862 36.3103 44.908 38.8931 41.0705 40.2221C37.2329 41.5512 33.0596 41.5493 29.2233 40.2166C25.387 38.8838 22.1113 36.298 19.9242 32.876C19.7842 32.6613 19.6628 32.4372 19.5321 32.2225H16.1056C16.476 33.0113 16.897 33.7754 17.366 34.5099C19.343 37.5966 22.0893 40.1156 25.3349 41.8191C28.5805 43.5227 32.2135 44.3522 35.8769 44.2261C39.5402 44.1 43.1077 43.0226 46.2284 41.0998C49.3491 39.1771 51.9157 36.4752 53.6757 33.2599C55.4358 30.0446 56.3286 26.4265 56.2665 22.7616C56.2044 19.0966 55.1895 15.5109 53.3216 12.357C51.4537 9.20315 48.7971 6.58976 45.613 4.77383C42.4289 2.9579 38.827 2.00195 35.1615 2Z" fill="#0055DC"/>
<path d="M35.8617 20.2343L28.6446 13.0078L26.4972 15.1552L31.1281 19.7862H0L1.80196 22.8205H34.788L35.8617 20.2343Z" fill="#0055DC"/>
<path d="M33.9651 33.6322L36.1125 35.7702L43.3297 28.5531L42.256 25.9575H3.66797L5.46993 28.9919H38.5961L33.9651 33.6322Z" fill="#0055DC"/>
</svg>
