<svg width="54" height="56" viewBox="0 0 54 56" fill="none" xmlns="http://www.w3.org/2000/svg">
<path d="M28.6884 1H25.3115V17.8744H28.6884V1Z" fill="#0055DC"/>
<path d="M54.0001 26.3115H37.1257V29.6884H54.0001V26.3115Z" fill="#0055DC"/>
<path d="M16.8744 26.3115H0V29.6884H16.8744V26.3115Z" fill="#0055DC"/>
<path d="M28.6884 38.1255H25.3115V54.9999H28.6884V38.1255Z" fill="#0055DC"/>
<path d="M44.8976 7.7211L32.9656 19.6531L35.3534 22.0409L47.2854 10.1089L44.8976 7.7211Z" fill="#0055DC"/>
<path d="M35.3466 33.9559L32.9587 36.3438L44.8907 48.2757L47.2785 45.8879L35.3466 33.9559Z" fill="#0055DC"/>
<path d="M9.10144 7.70691L6.71362 10.0947L18.6456 22.0267L21.0334 19.6389L9.10144 7.70691Z" fill="#0055DC"/>
<path d="M18.6485 33.9662L6.71655 45.8982L9.10437 48.286L21.0364 36.354L18.6485 33.9662Z" fill="#0055DC"/>
<path d="M18.2212 2.41133L15.1013 3.70361L21.5589 19.2935L24.6787 18.0012L18.2212 2.41133Z" fill="#0055DC"/>
<path d="M51.2885 16.1052L35.6997 22.5654L36.9925 25.685L52.5813 19.2248L51.2885 16.1052Z" fill="#0055DC"/>
<path d="M16.9955 30.3185L1.40674 36.7788L2.69956 39.8984L18.2883 33.4382L16.9955 30.3185Z" fill="#0055DC"/>
<path d="M32.4299 36.6989L29.3101 37.9912L35.7676 53.5811L38.8874 52.2888L32.4299 36.6989Z" fill="#0055DC"/>
<path d="M35.7737 2.40733L29.3135 17.9961L32.4331 19.2889L38.8934 3.70016L35.7737 2.40733Z" fill="#0055DC"/>
<path d="M36.9971 30.3076L35.7048 33.4275L51.2947 39.885L52.587 36.7652L36.9971 30.3076Z" fill="#0055DC"/>
<path d="M2.70781 16.1028L1.41553 19.2227L17.0054 25.6802L18.2977 22.5604L2.70781 16.1028Z" fill="#0055DC"/>
<path d="M21.5645 36.7013L15.1042 52.29L18.2239 53.5829L24.6841 37.9941L21.5645 36.7013Z" fill="#0055DC"/>
</svg>
