<svg fill="none" height="56" viewBox="0 0 48 56" width="48" xmlns="http://www.w3.org/2000/svg"><g fill="#0055dc"><path d="m25.525 6.92v-2.57h4.18v-3.35h-11.71v3.35h4.19v2.57c-6.1677.43405-11.9261 3.2454-16.06176 7.8416-4.13567 4.5962-6.325664 10.6184-6.1085042 16.7976.2171602 6.1791 2.8245142 12.0327 7.2726442 16.3272 4.44812 4.2946 10.38962 6.6947 16.57262 6.6947s12.1245-2.4001 16.5727-6.6947c4.4481-4.2945 7.0554-10.1481 7.2726-16.3272.2172-6.1792-1.9728-12.2014-6.1085-16.7976s-9.8941-7.40755-16.0618-7.8416zm-1.68 44.3c-4.0565 0-8.0219-1.2029-11.3947-3.4566-3.37288-2.2536-6.0017-5.4569-7.55405-9.2046-1.55236-3.7477-1.95852-7.8716-1.16714-11.8501.79138-3.9786 2.74477-7.6331 5.61314-10.5015 2.86835-2.8683 6.52295-4.8217 10.50145-5.6131 3.9786-.79139 8.1024-.3852 11.8502 1.1671 3.7477 1.5524 6.9509 4.1812 9.2046 7.5541 2.2536 3.3728 3.4565 7.3382 3.4565 11.3947-.0053 5.438-2.1679 10.6517-6.0131 14.4969s-9.0589 6.0078-14.4969 6.0131z"/><path d="m32.7149 19.4848-20.0889 20.0889 2.3688 2.3688 20.0889-20.0889z"/></g></svg>