<svg width="51" height="56" viewBox="0 0 51 56" fill="none" xmlns="http://www.w3.org/2000/svg">
<path d="M6.38689 15.7548C5.12476 15.7566 3.89045 15.384 2.84023 14.6839C1.79002 13.9839 0.971142 12.988 0.487274 11.8223C0.00340538 10.6566 -0.12369 9.37353 0.122079 8.13555C0.367848 6.89757 0.975429 5.76036 1.86789 4.86789C2.76036 3.97543 3.89757 3.36785 5.13555 3.12208C6.37353 2.87631 7.65659 3.00341 8.82229 3.48727C9.98799 3.97114 10.9839 4.79002 11.6839 5.84023C12.384 6.89045 12.7566 8.12476 12.7548 9.38689C12.7522 11.075 12.0805 12.6932 10.8869 13.8869C9.69321 15.0805 8.07498 15.7522 6.38689 15.7548ZM6.38689 6.23628C5.75268 6.22686 5.13006 6.40679 4.59864 6.75309C4.06723 7.09938 3.65116 7.59629 3.40365 8.18029C3.15613 8.76429 3.0884 9.40883 3.20913 10.0315C3.32985 10.6542 3.63354 11.2268 4.08137 11.6759C4.5292 12.1251 5.10082 12.4306 5.72314 12.5532C6.34547 12.6758 6.99022 12.61 7.57496 12.3642C8.15971 12.1185 8.65788 11.7039 9.00578 11.1736C9.35367 10.6432 9.53549 10.0211 9.52799 9.38689C9.52808 8.54938 9.19867 7.74546 8.61093 7.14881C8.02319 6.55216 7.22431 6.2107 6.38689 6.1982V6.23628Z" fill="#0055DC"/>
<path d="M19.9223 31.6887C18.661 31.6887 17.428 31.3147 16.3792 30.6139C15.3305 29.9132 14.5131 28.9172 14.0304 27.7519C13.5477 26.5865 13.4214 25.3043 13.6675 24.0672C13.9135 22.8301 14.5209 21.6937 15.4128 20.8019C16.3047 19.91 17.441 19.3026 18.6781 19.0565C19.9152 18.8104 21.1975 18.9367 22.3628 19.4194C23.5281 19.9021 24.5241 20.7195 25.2249 21.7683C25.9257 22.817 26.2997 24.05 26.2997 25.3113C26.2997 27.0027 25.6278 28.6248 24.4318 29.8208C23.2358 31.0168 21.6137 31.6887 19.9223 31.6887ZM19.9223 22.1702C19.2912 22.1702 18.6744 22.3575 18.1498 22.7083C17.6252 23.0591 17.2165 23.5577 16.9754 24.1409C16.7344 24.7241 16.6718 25.3657 16.7956 25.9845C16.9194 26.6033 17.224 27.1715 17.6709 27.617C18.1178 28.0626 18.6869 28.3656 19.3061 28.4875C19.9252 28.6095 20.5667 28.545 21.1492 28.3022C21.7317 28.0594 22.229 27.6492 22.5782 27.1235C22.9275 26.5979 23.1129 25.9805 23.111 25.3494C23.1148 24.9283 23.0351 24.5106 22.8765 24.1204C22.718 23.7302 22.4837 23.3753 22.1872 23.0762C21.8907 22.7771 21.5379 22.5396 21.1492 22.3776C20.7605 22.2156 20.3435 22.1322 19.9223 22.1322V22.1702Z" fill="#0055DC"/>
<path d="M41.434 45.2334C40.1727 45.2334 38.9397 44.8594 37.8909 44.1586C36.8422 43.4579 36.0248 42.4619 35.5421 41.2965C35.0594 40.1312 34.9331 38.8489 35.1792 37.6119C35.4253 36.3748 36.0326 35.2384 36.9245 34.3465C37.8164 33.4546 38.9528 32.8473 40.1899 32.6012C41.4269 32.3551 42.7092 32.4814 43.8745 32.9641C45.0399 33.4468 46.0359 34.2642 46.7366 35.3129C47.4374 36.3617 47.8114 37.5947 47.8114 38.856C47.8114 40.5474 47.1395 42.1695 45.9435 43.3655C44.7475 44.5615 43.1254 45.2334 41.434 45.2334ZM41.434 35.7149C40.803 35.7149 40.1861 35.9022 39.6615 36.253C39.1369 36.6038 38.7282 37.1024 38.4872 37.6856C38.2461 38.2688 38.1835 38.9104 38.3073 39.5292C38.4311 40.148 38.7358 40.7162 39.1827 41.1617C39.6296 41.6073 40.1986 41.9102 40.8178 42.0322C41.437 42.1541 42.0784 42.0896 42.6609 41.8468C43.2434 41.604 43.7407 41.1938 44.09 40.6682C44.4392 40.1426 44.6246 39.5252 44.6227 38.8941C44.6265 38.473 44.5468 38.0552 44.3882 37.6651C44.2297 37.2749 43.9954 36.92 43.6989 36.6209C43.4025 36.3217 43.0497 36.0843 42.6609 35.9223C42.2722 35.7602 41.8552 35.6768 41.434 35.6768V35.7149Z" fill="#0055DC"/>
<path d="M44.6225 15.7548C43.3608 15.7548 42.1274 15.3805 41.0784 14.6793C40.0295 13.9781 39.2121 12.9816 38.7297 11.8157C38.2472 10.6498 38.1215 9.36706 38.3684 8.12971C38.6152 6.89236 39.2235 5.75604 40.1164 4.86453C41.0092 3.97302 42.1465 3.36638 43.3842 3.12138C44.6219 2.87639 45.9045 3.00404 47.0696 3.48819C48.2348 3.97234 49.2301 4.79122 49.9297 5.84123C50.6293 6.89123 51.0018 8.12517 50.9999 9.3869C50.9973 11.0766 50.3243 12.6963 49.1286 13.8902C47.9329 15.0842 46.3122 15.7548 44.6225 15.7548ZM44.6225 6.23629C43.9902 6.23633 43.3722 6.42434 42.8471 6.77643C42.3219 7.12852 41.9132 7.6288 41.6731 8.21367C41.4329 8.79855 41.372 9.44163 41.4981 10.0612C41.6243 10.6808 41.9318 11.2488 42.3816 11.6932C42.8313 12.1376 43.403 12.4383 44.0241 12.557C44.6451 12.6757 45.2874 12.6071 45.8694 12.3599C46.4513 12.1127 46.9466 11.6981 47.2924 11.1687C47.6382 10.6393 47.8187 10.0191 47.8112 9.3869C47.8112 8.96816 47.7287 8.55351 47.5685 8.16664C47.4082 7.77977 47.1733 7.42825 46.8772 7.13216C46.5811 6.83606 46.2296 6.60118 45.8427 6.44094C45.4559 6.28069 45.0412 6.19821 44.6225 6.19821V6.23629Z" fill="#0055DC"/>
<path d="M12.7547 53.9904C11.9072 53.9932 11.0678 53.8262 10.2858 53.4994C9.50387 53.1726 8.79527 52.6925 8.20179 52.0875C7.60832 51.4825 7.14198 50.7648 6.83027 49.9767C6.51856 49.1886 6.3678 48.3461 6.38686 47.4988C6.39374 46.6545 6.56998 45.8201 6.90516 45.0451C7.24033 44.2701 7.72761 43.5703 8.33815 42.9871C8.93697 42.4018 9.64772 41.9433 10.4279 41.6391C11.208 41.3349 12.0415 41.1912 12.8785 41.2166C13.713 41.2224 14.5381 41.3936 15.306 41.7204C16.0739 42.0471 16.7694 42.523 17.3521 43.1203C18.2191 44.0208 18.8019 45.1566 19.0278 46.386C19.2537 47.6154 19.1128 48.8842 18.6226 50.0341C18.1324 51.184 17.3146 52.1642 16.2712 52.8525C15.2277 53.5408 14.0047 53.9067 12.7547 53.9047V53.9904ZM12.7547 44.4719C11.9299 44.4696 11.137 44.7909 10.5464 45.3667C10.0912 45.8037 9.77583 46.3659 9.64031 46.9823C9.50479 47.5986 9.55519 48.2413 9.78512 48.8289C10.0151 49.4166 10.4142 49.9228 10.932 50.2835C11.4498 50.6442 12.063 50.8432 12.6939 50.8552C13.3249 50.8672 13.9452 50.6917 14.4763 50.351C15.0075 50.0102 15.4256 49.5195 15.6777 48.9411C15.9299 48.3626 16.0047 47.7223 15.8927 47.1012C15.7807 46.4802 15.487 45.9063 15.0487 45.4523C14.4603 44.8544 13.6601 44.5125 12.8214 44.5005L12.7547 44.4719Z" fill="#0055DC"/>
<path d="M16.8162 29.6236L12.8315 42.3698L15.875 43.3212L19.8596 30.5751L16.8162 29.6236Z" fill="#0055DC"/>
<path d="M10.7641 12.303L8.39404 14.4363L15.5643 22.4024L17.9343 20.2692L10.7641 12.303Z" fill="#0055DC"/>
<path d="M39.8005 11.208L23.0737 21.5669L24.7526 24.2778L41.4794 13.9189L39.8005 11.208Z" fill="#0055DC"/>
<path d="M24.718 26.3363L23.1011 29.0846L36.6458 37.0535L38.2627 34.3052L24.718 26.3363Z" fill="#0055DC"/>
<path d="M36.207 38.9148L17.0908 44.4904L17.9837 47.5515L37.0998 41.976L36.207 38.9148Z" fill="#0055DC"/>
<path d="M7.95148 13.9036L4.80615 14.4277L9.58554 43.1112L12.7309 42.5871L7.95148 13.9036Z" fill="#0055DC"/>
<path d="M39.8442 7.78784H11.165V10.9765H39.8442V7.78784Z" fill="#0055DC"/>
<path d="M43.0479 13.9139L39.8579 33.8297L43.0065 34.334L46.1965 14.4182L43.0479 13.9139Z" fill="#0055DC"/>
</svg>
