<svg fill="none" height="56" viewBox="0 0 41 56" width="41" xmlns="http://www.w3.org/2000/svg"><g fill="#0055dc"><path d="m20.0902 30.7858c-.8509-.008-1.6792.2735-2.3489.7985-.6697.5249-1.141 1.262-1.3364 2.0902-.1954.8281-.1033 1.6981.2611 2.4671.3644.7689.9794 1.3911 1.7442 1.7642v7.11h3.35v-7.11c.7639-.3728 1.3785-.9941 1.743-1.762s.4573-1.6368.2632-2.4644-.6636-1.5646-1.3316-2.0904c-.6679-.5257-1.4946-.8089-2.3446-.8032z"/><path d="m37.66 22.4156h-5v-9.21c-.0923-3.26842-1.4555-6.37206-3.7999-8.65128-2.3445-2.27921-5.4853-3.55432-8.7551-3.55432s-6.4106 1.27511-8.7551 3.55432c-2.34443 2.27922-3.70765 5.38286-3.7999 8.65128v9.21h-5l-2.55 2.52v26.77l2.52 2.52h35.14l2.51-2.52v-26.77zm-26.78-9.21c.0787-2.3888 1.0831-4.65341 2.8007-6.31539 1.7177-1.66199 4.0142-2.59114 6.4043-2.59114s4.6866.92915 6.4043 2.59114c1.7176 1.66198 2.722 3.92659 2.8007 6.31539v9.21h-18.41zm25.95 13.11v24.56h-33.48v-25.11h33.48z"/></g></svg>