<svg width="480" height="366" viewBox="0 0 480 366" fill="none" xmlns="http://www.w3.org/2000/svg">
<path d="M370.077 258.717C351.813 259.85 332.16 260.687 311.768 261.308C314.04 254.629 315.973 247.839 317.561 240.965C321.843 222.129 323.981 202.869 323.934 183.552H389.179C389.139 210.732 382.559 236.444 370.077 258.717Z" fill="white"/>
<path d="M323.934 183.552L239.982 183.493C239.982 156.718 239.982 129.942 240.042 104.684C264.305 104.684 288.578 105.068 311.876 105.777C319.472 128.08 323.964 154.856 323.934 183.552Z" fill="white"/>
<path d="M311.768 261.308C288.47 261.988 264.197 262.293 239.933 262.293C239.933 237.044 239.933 210.269 239.933 183.483L323.885 183.543C323.932 202.859 321.793 222.119 317.511 240.955C315.943 247.832 314.026 254.625 311.768 261.308Z" fill="#E2F5FA"/>
<path d="M323.934 183.552C323.934 154.856 319.472 128.061 311.876 105.797C332.268 106.417 351.922 107.314 370.186 108.467C382.628 130.809 389.179 156.462 389.179 183.592L323.934 183.552Z" fill="#E2F5FA"/>
<path d="M370.077 258.717C344.75 304.682 294.312 332.295 239.884 331.862C268.807 331.931 296.036 306.938 311.797 261.308C332.16 260.707 351.813 259.85 370.077 258.717Z" fill="#E2F5FA"/>
<path d="M240.13 35.1245C269.053 35.1245 296.282 60.1367 311.916 105.797C288.618 105.088 264.344 104.723 240.081 104.703C240.061 79.4647 240.071 55.7529 240.13 35.1245Z" fill="#E2F5FA"/>
<path d="M311.877 105.797C296.203 60.1073 269.014 35.0852 240.13 35.1246C294.578 34.7602 344.977 62.4617 370.225 108.467C351.922 107.314 332.269 106.408 311.877 105.797Z" fill="white"/>
<path d="M311.768 261.308C296.006 306.939 268.807 331.931 239.854 331.862C239.854 311.234 239.854 287.532 239.903 262.303C264.196 262.313 288.47 261.988 311.768 261.308Z" fill="white"/>
<path d="M240.042 104.703C240.042 129.942 240.042 156.718 239.983 183.513L156.041 183.454C156.041 154.757 160.572 127.972 168.187 105.718C191.495 105.019 215.768 104.684 240.042 104.703Z" fill="#E2F5FA"/>
<path d="M240.13 35.1247C240.13 55.753 240.13 79.455 240.081 104.704C215.807 104.704 191.534 105.019 168.226 105.689C183.978 60.1073 211.138 35.0557 240.13 35.1247Z" fill="white"/>
<path d="M240.13 35.1247C211.177 35.0557 183.978 60.058 168.216 105.699C147.824 106.29 128.181 107.157 109.917 108.28C135.195 62.3139 185.633 34.6912 240.13 35.1247Z" fill="#E2F5FA"/>
<path d="M239.884 331.862C210.951 331.862 183.733 306.87 168.089 261.209C191.397 261.919 215.66 262.283 239.934 262.303C239.914 287.532 239.894 311.234 239.884 331.862Z" fill="#E2F5FA"/>
<path d="M168.217 105.698C160.602 127.952 156.08 154.738 156.07 183.434H90.8159C90.8159 156.294 97.4359 130.652 109.917 108.319C128.152 107.156 147.795 106.29 168.217 105.698Z" fill="white"/>
<path d="M168.088 261.209C160.493 238.946 156.011 212.131 156.04 183.434L239.982 183.493C239.982 210.279 239.982 237.054 239.982 262.303C215.66 262.283 191.396 261.919 168.088 261.209Z" fill="white"/>
<path d="M168.088 261.209C183.772 306.87 210.951 331.901 239.884 331.862C185.427 332.226 135.048 304.545 109.779 258.54C128.053 259.692 147.697 260.579 168.088 261.209Z" fill="white"/>
<path d="M109.779 258.54C97.3372 236.197 90.7861 210.525 90.7861 183.395H156.04C156.04 212.091 160.493 238.906 168.088 261.17C147.696 260.579 128.053 259.692 109.779 258.54Z" fill="#E2F5FA"/>
<path d="M389.179 183.592C389.179 210.732 382.559 236.394 370.077 258.717C344.75 304.683 294.312 332.296 239.884 331.862C185.427 332.227 135.048 304.545 109.779 258.54C97.3372 236.197 90.7861 210.525 90.7861 183.395C90.7861 156.265 97.4061 130.612 109.888 108.28C135.195 62.3139 185.633 34.6912 240.13 35.1247C294.578 34.7602 344.976 62.4617 370.225 108.467C382.628 130.809 389.179 156.462 389.179 183.592Z" stroke="#0055DC" stroke-width="0.985119" stroke-miterlimit="10"/>
<path d="M389.179 183.592C389.179 210.732 382.559 236.394 370.077 258.717C344.75 304.683 294.312 332.296 239.884 331.862C185.427 332.227 135.048 304.545 109.779 258.54C97.3372 236.197 90.7861 210.525 90.7861 183.395C90.7861 156.265 97.4061 130.612 109.888 108.28C135.195 62.3139 185.633 34.6912 240.13 35.1247C294.578 34.7602 344.976 62.4617 370.225 108.467C382.628 130.809 389.179 156.462 389.179 183.592Z" stroke="#0055DC" stroke-width="1.97024" stroke-miterlimit="10"/>
<path d="M302.025 96.3101C315.985 76.5584 382.362 47.793 387.898 55.7527C394.223 64.8946 366.314 91.6997 362.472 94.3694" stroke="url(#paint0_linear)" stroke-width="2" stroke-miterlimit="10" stroke-linejoin="bevel"/>
<path d="M315.482 83.5925C315.344 80.5583 315.196 77.5537 315.039 74.5787C317.666 73.1929 320.273 71.8236 322.86 70.4707C325.619 72.06 328.37 73.6625 331.116 75.2781C331.293 78.2334 331.46 81.2479 331.618 84.2722L323.865 88.4787C321.067 86.8434 318.273 85.2147 315.482 83.5925Z" fill="#FBAD40" stroke="#F6821F" stroke-width="2.26577" stroke-linejoin="bevel"/>
<path d="M294.125 269.849C314.812 280.527 379.13 320.602 385.544 311.696C392.439 304.623 364.275 275.415 361.782 273.592" stroke="url(#paint1_linear)" stroke-width="2" stroke-miterlimit="10" stroke-linejoin="bevel"/>
<path d="M334.14 282.744C333.969 285.772 333.792 288.77 333.608 291.738C330.882 293.354 328.137 294.956 325.372 296.545L317.59 292.437C317.747 289.462 317.905 286.458 318.063 283.424C320.841 281.808 323.612 280.166 326.377 278.498L334.14 282.744Z" fill="#FBAD40" stroke="#F6821F" stroke-width="2.26577" stroke-linejoin="bevel"/>
<path d="M265.527 93.6012C265.389 86.2719 262.404 1.98511 270.521 1.98511C277.85 1.98511 279.525 31.7948 278.028 38.4345" stroke="url(#paint2_linear)" stroke-width="2" stroke-miterlimit="10" stroke-linejoin="bevel"/>
<path d="M253.794 72.8053C253.741 68.786 253.692 64.8455 253.646 60.9839C257.37 59.0596 261.067 57.1682 264.738 55.3096C268.515 57.2798 272.294 59.25 276.077 61.2203C276.215 65.1082 276.34 69.0487 276.451 73.0417C272.761 75.0119 269.034 76.9822 265.27 78.9524C261.428 76.8968 257.603 74.8478 253.794 72.8053Z" fill="#FBAD40" stroke="#F6821F" stroke-width="3.06372" stroke-linejoin="bevel"/>
<path d="M265.438 269.938C265.31 277.286 264.305 304.89 264.659 326.395C265.063 348.609 266.807 364.736 270.383 364.627C277.643 365.612 279.328 334.236 277.978 328.444" stroke="url(#paint3_linear)" stroke-width="2" stroke-miterlimit="10" stroke-linejoin="bevel"/>
<path d="M253.656 293.846C253.61 297.866 253.561 301.806 253.508 305.668C257.232 307.592 260.93 309.483 264.601 311.342C268.37 309.372 272.153 307.402 275.949 305.431C276.074 301.55 276.199 297.61 276.324 293.61C272.62 291.64 268.886 289.669 265.133 287.699C261.304 289.761 257.478 291.81 253.656 293.846Z" fill="#FBAD40" stroke="#F6821F" stroke-width="3.06372" stroke-linejoin="bevel"/>
<path d="M328.357 146.867C335.312 146.985 364.659 147.014 387.465 148.098C411.048 149.083 428.12 151.191 427.943 153.831C428.977 159.033 396.242 163.003 388.942 163.791" stroke="url(#paint4_linear)" stroke-width="2" stroke-miterlimit="10" stroke-linejoin="bevel"/>
<path d="M328.259 222.79C335.214 222.681 364.551 222.642 387.366 221.529C410.96 220.485 428.081 218.357 427.904 215.717C428.938 210.515 395.651 206.683 388.617 205.698" stroke="url(#paint5_linear)" stroke-width="2" stroke-miterlimit="10" stroke-linejoin="bevel"/>
<path d="M368.008 154.353C367.949 150.048 367.861 145.753 367.772 141.478C364.364 139.199 360.906 136.923 357.399 134.651L347.075 140.768C347.173 145.116 347.252 149.477 347.311 153.851C350.884 156.117 354.411 158.373 357.891 160.619C361.3 158.501 364.689 156.422 368.008 154.353Z" fill="#FBAD40" stroke="#F6821F" stroke-width="3.06372" stroke-linejoin="bevel"/>
<path d="M367.644 228.415C367.756 224.139 367.851 219.851 367.93 215.549L357.823 209.303C354.342 211.549 350.808 213.805 347.223 216.071C347.157 220.438 347.065 224.789 346.947 229.124L357.251 235.232C360.771 232.959 364.236 230.687 367.644 228.415Z" fill="#FBAD40" stroke="#F6821F" stroke-width="3.06372" stroke-linejoin="bevel"/>
<path d="M177.949 96.3103C163.971 76.6079 97.6129 47.7931 92.0962 55.7529C85.7718 64.8948 113.68 91.6999 117.522 94.3696" stroke="url(#paint6_linear)" stroke-width="2" stroke-miterlimit="10" stroke-linejoin="bevel"/>
<path d="M164.493 83.5925C164.631 80.5583 164.778 77.5537 164.936 74.5787C162.309 73.1929 159.702 71.8236 157.114 70.4707C154.356 72.06 151.604 73.6625 148.859 75.2781C148.682 78.2334 148.514 81.2479 148.356 84.2722L156.159 88.4787C158.943 86.8434 161.721 85.2147 164.493 83.5925Z" fill="#FBAD40" stroke="#F6821F" stroke-width="2.26577" stroke-linejoin="bevel"/>
<path d="M185.85 269.849C165.163 280.527 100.844 320.602 94.4311 311.696C87.5353 304.623 115.7 275.415 118.192 273.592" stroke="url(#paint7_linear)" stroke-width="2" stroke-miterlimit="10" stroke-linejoin="bevel"/>
<path d="M145.834 282.744C145.999 285.772 146.176 288.77 146.366 291.738C149.099 293.354 151.844 294.956 154.602 296.545L162.384 292.437C162.217 289.482 162.069 286.458 161.912 283.424C159.134 281.808 156.362 280.166 153.597 278.498L145.834 282.744Z" fill="#FBAD40" stroke="#F6821F" stroke-width="2.26577" stroke-linejoin="bevel"/>
<path d="M214.448 93.6012C214.586 86.2719 217.561 1.98511 209.454 1.98511C202.115 1.98511 200.45 31.7948 201.947 38.4345" stroke="url(#paint8_linear)" stroke-width="2" stroke-miterlimit="10" stroke-linejoin="bevel"/>
<path d="M226.181 72.8053C226.227 68.786 226.276 64.8455 226.328 60.9839C222.605 59.0596 218.907 57.1682 215.236 55.3096C211.466 57.2798 207.683 59.25 203.887 61.2203C203.763 65.1082 203.641 69.0487 203.523 73.0417C207.22 75.0119 210.947 76.9822 214.704 78.9524C218.52 76.8968 222.345 74.8478 226.181 72.8053Z" fill="#FBAD40" stroke="#F6821F" stroke-width="3.06372" stroke-linejoin="bevel"/>
<path d="M214.518 269.938C214.646 277.286 214.922 305.136 214.518 326.641C214.124 348.865 213.099 364.736 209.523 364.627C202.263 365.612 200.539 334.295 201.918 328.463" stroke="url(#paint9_linear)" stroke-width="2" stroke-miterlimit="10" stroke-linejoin="bevel"/>
<path d="M226.338 293.846C226.378 297.866 226.427 301.806 226.486 305.668C222.762 307.592 219.065 309.483 215.394 311.342C211.618 309.372 207.835 307.402 204.045 305.431C203.92 301.55 203.796 297.61 203.671 293.61C207.375 291.64 211.109 289.669 214.862 287.699C218.684 289.761 222.51 291.81 226.338 293.846Z" fill="#FBAD40" stroke="#F6821F" stroke-width="3.06372" stroke-linejoin="bevel"/>
<path d="M151.617 146.867C144.653 146.985 115.316 147.014 92.5102 148.098C68.9264 149.083 51.8445 151.191 52.0218 153.831C51.0367 159.033 83.7328 163.003 91.0325 163.791" stroke="url(#paint10_linear)" stroke-width="2" stroke-miterlimit="10" stroke-linejoin="bevel"/>
<path d="M151.716 222.79C144.751 222.681 115.424 222.642 92.6088 221.529C68.9758 220.485 51.8544 218.357 52.0317 215.756C51.0466 210.555 84.2845 206.722 91.3183 205.737" stroke="url(#paint11_linear)" stroke-width="2" stroke-miterlimit="10" stroke-linejoin="bevel"/>
<path d="M111.966 154.353C112.025 150.048 112.114 145.753 112.203 141.478C115.611 139.199 119.069 136.923 122.576 134.651L132.9 140.768C132.802 145.116 132.719 149.477 132.654 153.851C129.088 156.117 125.564 158.373 122.083 160.619C118.655 158.501 115.286 156.422 111.966 154.353Z" fill="#FBAD40" stroke="#F6821F" stroke-width="3.06372" stroke-linejoin="bevel"/>
<path d="M112.331 228.415C112.219 224.139 112.124 219.851 112.045 215.549L122.152 209.303C125.633 211.549 129.163 213.805 132.742 216.071C132.821 220.438 132.916 224.789 133.028 229.124L122.714 235.232C119.207 232.959 115.746 230.687 112.331 228.415Z" fill="#FBAD40" stroke="#F6821F" stroke-width="3.06372" stroke-linejoin="bevel"/>
<path d="M292.007 269.937C257.754 270.696 222.063 270.666 187.84 269.868C178.391 269.62 169.396 265.759 162.707 259.079C156.019 252.4 152.145 243.41 151.884 233.961C151.076 199.689 151.125 163.949 152.031 129.765C152.333 120.333 156.232 111.375 162.929 104.727C169.627 98.0795 178.614 94.2466 188.047 94.0149C222.251 93.2465 257.833 93.2761 292.036 94.0839C301.47 94.3311 310.452 98.1784 317.14 104.837C323.828 111.495 327.715 120.46 328.003 129.893C328.86 164.067 328.86 199.836 328.003 234.079C327.727 243.526 323.841 252.507 317.146 259.177C310.451 265.846 301.454 269.697 292.007 269.937Z" fill="white" stroke="#FF6633" stroke-width="1.97024" stroke-miterlimit="10"/>
<path d="M283.544 207.077C283.653 190.33 283.662 173.465 283.544 156.767C269.132 148.315 254.513 139.872 240.002 131.627C225.491 139.853 210.862 148.275 196.43 156.708C196.302 173.406 196.292 190.301 196.381 207.018C210.793 215.47 225.422 223.923 239.933 232.198C254.473 223.942 269.112 215.51 283.544 207.077Z" fill="#FBAD40" stroke="#F6821F" stroke-width="8.40306" stroke-linejoin="bevel"/>
<path d="M230.516 181.523L218.96 174.903L230.526 168.303C230.526 167.111 230.526 165.928 230.526 164.746L215.502 173.396C215.502 174.381 215.502 175.464 215.502 176.499L230.555 185.128C230.506 183.897 230.506 182.715 230.516 181.523Z" fill="#0055DC"/>
<path d="M249.075 178.666V182.262L260.63 188.882C256.775 191.089 252.92 193.292 249.065 195.492C249.065 196.684 249.065 197.866 249.065 199.058L264.512 190.192C264.512 189.306 264.512 188.409 264.512 187.522C259.382 184.574 254.237 181.622 249.075 178.666Z" fill="#0055DC"/>
<path d="M247.834 161.023C241.352 174.873 234.811 188.862 228.309 202.733H231.718L251.213 161.033L247.834 161.023Z" fill="#0055DC"/>
<defs>
<linearGradient id="paint0_linear" x1="389.784" y1="75.1465" x2="301.263" y2="75.0855" gradientUnits="userSpaceOnUse">
<stop stop-color="#FBAD40"/>
<stop offset="1" stop-color="#FF6633"/>
</linearGradient>
<linearGradient id="paint1_linear" x1="293.67" y1="291.442" x2="387.642" y2="291.507" gradientUnits="userSpaceOnUse">
<stop stop-color="#FF6633"/>
<stop offset="1" stop-color="#FBAD40"/>
</linearGradient>
<linearGradient id="paint2_linear" x1="279.507" y1="47.3013" x2="263.86" y2="47.312" gradientUnits="userSpaceOnUse">
<stop stop-color="#FBAD40"/>
<stop offset="1" stop-color="#FF6633"/>
</linearGradient>
<linearGradient id="paint3_linear" x1="279.405" y1="317.834" x2="263.577" y2="317.823" gradientUnits="userSpaceOnUse">
<stop stop-color="#FBAD40"/>
<stop offset="1" stop-color="#FF6633"/>
</linearGradient>
<linearGradient id="paint4_linear" x1="328.297" y1="155.317" x2="428.938" y2="155.386" gradientUnits="userSpaceOnUse">
<stop stop-color="#FF6633"/>
<stop offset="1" stop-color="#FBAD40"/>
</linearGradient>
<linearGradient id="paint5_linear" x1="328.209" y1="214.29" x2="428.868" y2="214.359" gradientUnits="userSpaceOnUse">
<stop stop-color="#FF6633"/>
<stop offset="1" stop-color="#FBAD40"/>
</linearGradient>
<linearGradient id="paint6_linear" x1="90.2194" y1="75.1476" x2="178.72" y2="75.0866" gradientUnits="userSpaceOnUse">
<stop stop-color="#FBAD40"/>
<stop offset="1" stop-color="#FF6633"/>
</linearGradient>
<linearGradient id="paint7_linear" x1="186.314" y1="291.442" x2="92.3419" y2="291.507" gradientUnits="userSpaceOnUse">
<stop stop-color="#FF6633"/>
<stop offset="1" stop-color="#FBAD40"/>
</linearGradient>
<linearGradient id="paint8_linear" x1="200.476" y1="47.3013" x2="216.121" y2="47.312" gradientUnits="userSpaceOnUse">
<stop stop-color="#FBAD40"/>
<stop offset="1" stop-color="#FF6633"/>
</linearGradient>
<linearGradient id="paint9_linear" x1="200.465" y1="317.784" x2="215.749" y2="317.774" gradientUnits="userSpaceOnUse">
<stop stop-color="#FBAD40"/>
<stop offset="1" stop-color="#FF6633"/>
</linearGradient>
<linearGradient id="paint10_linear" x1="151.687" y1="155.317" x2="51.0376" y2="155.386" gradientUnits="userSpaceOnUse">
<stop stop-color="#FF6633"/>
<stop offset="1" stop-color="#FBAD40"/>
</linearGradient>
<linearGradient id="paint11_linear" x1="151.774" y1="214.309" x2="51.0784" y2="214.379" gradientUnits="userSpaceOnUse">
<stop stop-color="#FF6633"/>
<stop offset="1" stop-color="#FBAD40"/>
</linearGradient>
</defs>
</svg>
