<svg width="482" height="211" viewBox="0 0 482 211" fill="none" xmlns="http://www.w3.org/2000/svg">
<path d="M452.107 123.431C450.066 123.431 448.031 123.641 446.032 124.058C445.698 111.597 440.992 99.6619 432.756 90.3849C424.52 81.1078 413.29 75.093 401.072 73.4149C388.854 71.7368 376.444 74.5047 366.059 81.2242C355.673 87.9436 347.989 98.177 344.378 110.096C339.372 109.249 334.247 109.46 329.326 110.716C324.405 111.971 319.795 114.244 315.786 117.39C311.777 120.537 308.456 124.489 306.034 128.998C303.611 133.507 302.139 138.474 301.71 143.587C301.281 148.7 301.904 153.847 303.541 158.704C305.178 163.561 307.792 168.022 311.22 171.807C314.647 175.591 318.813 178.617 323.454 180.692C328.096 182.768 333.113 183.848 338.188 183.866H452.107C460.035 183.866 467.638 180.682 473.244 175.014C478.85 169.347 482 161.66 482 153.645C482 145.629 478.85 137.942 473.244 132.275C467.638 126.607 460.035 123.423 452.107 123.423V123.431Z" fill="#003682"/>
<path d="M65 77.8696C65 40.8385 104.166 1 152.952 1C213.936 1 268.152 39.9696 268.152 138.864C268.152 194.845 302.772 193.834 315.003 164.264C321.392 148.815 344.4 108.592 383.046 108.592C421.269 108.592 452.104 131.327 452.104 183.791" stroke="#FF6633" stroke-miterlimit="10"/>
<path d="M70.1738 77.8696C70.6945 41.8495 109.348 4.50924 156.332 6.01321C186.415 6.97408 214.763 17.4601 234.895 41.2312C253.796 63.5484 266.226 96.4687 267.053 142.098C267.879 195.463 300.937 194.628 313.88 167.03C320.756 152.366 343.706 114.282 380.575 113.271C382.641 113.216 384.682 113.216 386.699 113.271C420.336 114.458 447.997 135.764 448.559 183.808" stroke="#FF6A34" stroke-miterlimit="10"/>
<path d="M75.3496 77.8694C76.3827 42.8603 114.499 7.97655 159.723 11.0263C188.302 12.9397 215.269 23.5009 234.178 47.2553C252.063 69.6811 264.451 101.707 265.964 145.281C267.724 196.04 299.179 195.355 312.766 169.745C320.146 155.842 343.014 119.914 378.106 117.9C380.081 117.783 382.031 117.708 383.949 117.7C416.015 117.624 443.884 137.201 445.016 183.749" stroke="#FF6E35" stroke-miterlimit="10"/>
<path d="M80.5215 77.8695C82.0752 43.8714 119.596 11.4692 163.101 15.9811C190.176 18.8136 215.763 29.4834 233.457 53.2462C250.325 75.8642 262.598 107.063 264.863 148.498C267.499 196.641 297.467 196.123 311.64 172.494C319.55 159.326 342.318 125.57 375.625 122.554C377.509 122.387 379.36 122.237 381.187 122.153C411.683 120.816 439.758 138.672 441.452 183.716" stroke="#FE7335" stroke-miterlimit="10"/>
<path d="M85.7129 77.87C87.7873 44.8912 124.705 14.8536 166.499 20.9697C192.045 24.7046 216.277 35.5081 232.756 59.1957C248.599 81.9725 260.757 112.286 263.79 151.656C267.302 197.177 295.865 196.776 310.551 175.177C319.022 162.719 341.667 131.152 373.18 127.15C374.973 126.924 376.733 126.699 378.469 126.54C407.395 123.942 435.676 140.068 437.933 183.616" stroke="#FE7736" stroke-miterlimit="10"/>
<path d="M90.8691 77.8695C93.4642 45.9018 129.713 18.2454 169.87 25.9575C193.837 30.5697 216.747 41.5319 232.02 65.1777C246.838 88.13 258.88 117.558 262.681 154.839C267.053 197.744 294.302 197.452 309.409 177.892C318.5 166.128 340.972 136.758 370.691 131.779C372.394 131.494 374.063 131.194 375.7 130.943C403.047 127.091 431.543 141.479 434.378 183.532" stroke="#FE7B37" stroke-miterlimit="10"/>
<path d="M96.041 77.87C99.1485 46.955 134.752 21.5881 173.249 30.9377C195.704 36.3938 217.224 47.5733 231.291 71.169C247.286 97.6754 257.607 127.277 261.589 158.065C266.82 198.346 292.845 198.221 308.292 180.625C318.028 169.562 340.301 142.382 368.218 136.433C369.83 136.09 371.4 135.714 372.946 135.405C398.723 130.292 427.434 142.925 430.798 183.507" stroke="#FE7F38" stroke-miterlimit="10"/>
<path d="M101.217 77.87C104.845 47.9326 139.738 24.8884 176.631 35.9259C197.524 42.1758 217.706 53.6226 230.574 77.1514C243.334 100.471 255.145 128.119 260.5 161.215C266.574 198.864 291.492 198.931 307.178 183.315C317.608 172.938 339.642 147.938 365.749 141.037C367.278 140.627 368.749 140.201 370.196 139.8C394.394 133.425 423.32 144.362 427.271 183.424" stroke="#FD8338" stroke-miterlimit="10"/>
<path d="M106.373 77.8701C110.505 48.9437 144.688 28.1221 180.002 40.9142C199.316 47.9076 218.151 59.6804 229.838 83.1423C241.524 106.604 253.243 133.333 259.383 164.399C266.309 199.416 290.21 199.734 306.045 186.031C317.219 176.355 338.971 153.503 363.261 145.657C364.699 145.198 366.079 144.68 367.393 144.22C390.013 136.583 419.146 145.791 423.667 183.357" stroke="#FD8739" stroke-miterlimit="10"/>
<path d="M111.564 77.8702C116.234 49.9548 149.664 31.2722 183.4 45.8941C201.152 53.5894 218.624 65.7382 229.136 89.1249C239.798 112.838 251.376 138.589 258.31 167.582C266.054 199.968 289.046 200.603 304.939 188.746C316.923 179.814 338.336 159.051 360.807 150.311C362.155 149.785 363.444 149.2 364.7 148.64C385.75 139.742 415.114 147.22 420.172 183.29" stroke="#FD8C3A" stroke-miterlimit="10"/>
<path d="M116.736 77.8699C121.918 50.9655 154.629 34.3299 186.779 50.882C202.977 59.2373 219.068 71.7704 228.416 95.1154C238.002 119.029 249.465 143.836 257.218 170.774C265.771 200.51 287.937 201.546 303.822 191.461C316.648 183.323 337.706 164.565 358.368 154.915C359.632 154.33 360.847 153.67 361.979 153.06C381.459 142.908 411.013 148.648 416.658 183.223" stroke="#FD903B" stroke-miterlimit="10"/>
<path d="M121.91 77.8695C127.613 51.9678 159.638 37.2874 190.167 55.8698C204.82 64.7933 219.498 77.8779 227.697 101.098C236.209 125.228 247.532 149.091 256.119 173.957C265.466 201.061 286.871 202.574 302.706 194.177C316.417 186.899 337.012 170.055 355.864 159.543C357.037 158.892 358.128 158.165 359.17 157.48C377.071 146.066 406.831 150.085 413.046 183.156" stroke="#FC943B" stroke-miterlimit="10"/>
<path d="M127.082 77.8697C133.305 52.9957 164.719 40.1284 193.546 60.8498C206.703 70.3081 219.918 83.9608 226.968 107.089C234.406 131.428 245.604 154.338 255.026 177.14C265.142 201.613 285.828 203.694 301.589 196.884C316.209 190.576 336.3 175.519 353.391 164.173C354.474 163.454 355.474 162.66 356.449 161.9C372.78 149.225 402.73 151.514 409.524 183.089" stroke="#FC983C" stroke-miterlimit="10"/>
<path d="M132.26 77.8695C139.004 54.0065 169.905 42.8688 196.93 65.8378C208.633 75.7807 220.327 90.0684 226.253 113.071C232.575 137.627 243.608 159.602 253.939 180.332C264.79 202.173 284.782 204.905 300.477 199.599C316.023 194.352 335.634 180.958 350.891 168.793C351.883 168.008 352.783 167.122 353.668 166.286C368.428 152.35 398.611 152.918 405.949 182.997" stroke="#FC9C3D" stroke-miterlimit="10"/>
<path d="M137.434 77.8701C144.69 55.0265 175.244 45.5013 200.31 70.8265C210.616 81.229 220.724 96.11 225.534 119.062C230.732 143.836 241.642 164.883 252.807 183.516C264.377 202.733 283.667 206.192 299.32 202.315C315.791 198.238 334.858 186.373 348.428 173.422C349.321 172.587 350.131 171.651 350.908 170.74C364.09 155.542 394.478 154.372 402.379 182.964" stroke="#FCA03E" stroke-miterlimit="10"/>
<path d="M142.604 77.8698C150.38 56.0372 180.753 48.0578 203.695 75.806C212.662 86.6681 221.1 102.176 224.811 125.036C228.869 150.027 239.613 170.155 251.746 186.69C263.985 203.351 282.564 207.537 298.234 205.022C315.589 202.232 334.135 191.771 345.986 178.043C346.813 177.115 347.507 176.138 348.201 175.152C359.813 158.692 390.417 155.801 398.88 182.889" stroke="#FBA53E" stroke-miterlimit="10"/>
<path d="M147.779 77.8699C156.044 57.0482 186.507 50.5895 207.078 80.7942C214.78 92.1075 221.466 108.25 224.094 131.035C226.451 153.033 235.767 173.675 250.657 189.891C263.549 204.011 281.36 208.958 297.12 207.746C315.302 206.342 333.327 197.185 343.518 182.68C344.212 181.677 344.848 180.641 345.451 179.58C355.493 161.867 386.303 157.238 395.336 182.83" stroke="#FBA93F" stroke-miterlimit="10"/>
<path d="M152.955 77.8692C164.955 50.898 217.534 51.5246 223.378 137.017C228.907 218.006 322.445 229.411 342.702 183.999C351.173 165.024 382.19 158.666 391.785 182.763" stroke="#FBAD40" stroke-miterlimit="10"/>
<path d="M346.269 142.866H342.707V161.849H346.269V142.866Z" fill="#0055DC"/>
<path d="M439.212 142.866H435.65V161.849H439.212V142.866Z" fill="#0055DC"/>
<path d="M435.653 139.499H346.271V165.217H435.653V139.499Z" fill="#C5EBF5" stroke="#0055DC" stroke-miterlimit="10"/>
<path d="M431.791 161.591V143.125H350.129V161.591H431.791Z" fill="white"/>
<path d="M351.168 165.235V168.836H430.789V165.235H351.168Z" fill="white" stroke="#0055DC" stroke-miterlimit="10"/>
<path d="M356.756 148.339H354.781V150.336H356.756V148.339Z" fill="#0055DC"/>
<path d="M356.756 154.363H354.781V156.36H356.756V154.363Z" fill="#0055DC"/>
<path d="M359.469 151.189H357.494V153.186H359.469V151.189Z" fill="#0055DC"/>
<path d="M361.872 148.339H359.896V150.336H361.872V148.339Z" fill="#0055DC"/>
<path d="M361.872 154.363H359.896V156.36H361.872V154.363Z" fill="#0055DC"/>
<path d="M364.434 151.189H362.459V153.186H364.434V151.189Z" fill="#0055DC"/>
<path d="M367.458 148.339H365.482V150.336H367.458V148.339Z" fill="#0055DC"/>
<path d="M367.458 154.363H365.482V156.36H367.458V154.363Z" fill="#0055DC"/>
<path d="M370.022 151.189H368.047V153.186H370.022V151.189Z" fill="#0055DC"/>
<path d="M373.13 148.339H371.154V150.336H373.13V148.339Z" fill="#0055DC"/>
<path d="M373.13 154.363H371.154V156.36H373.13V154.363Z" fill="#0055DC"/>
<path d="M375.542 151.189H373.566V153.186H375.542V151.189Z" fill="#0055DC"/>
<path d="M378.253 148.339H376.277V150.336H378.253V148.339Z" fill="#0055DC"/>
<path d="M378.253 154.363H376.277V156.36H378.253V154.363Z" fill="#0055DC"/>
<path d="M380.51 151.189H378.535V153.186H380.51V151.189Z" fill="#0055DC"/>
<path d="M383.368 148.339H381.393V150.336H383.368V148.339Z" fill="#0055DC"/>
<path d="M383.368 154.363H381.393V156.36H383.368V154.363Z" fill="#0055DC"/>
<path d="M385.475 151.189H383.5V153.186H385.475V151.189Z" fill="#0055DC"/>
<path d="M425.302 154.84C426.658 154.84 427.757 153.729 427.757 152.359C427.757 150.988 426.658 149.877 425.302 149.877C423.947 149.877 422.848 150.988 422.848 152.359C422.848 153.729 423.947 154.84 425.302 154.84Z" fill="#0055DC"/>
<path d="M418.243 152.358H392.227" stroke="#0055DC" stroke-width="0.89" stroke-miterlimit="10"/>
<path d="M346.269 172.186H342.707V191.169H346.269V172.186Z" fill="#0055DC"/>
<path d="M439.212 172.186H435.65V191.169H439.212V172.186Z" fill="#0055DC"/>
<path d="M351.168 194.553V198.154H430.789V194.553H351.168Z" fill="white" stroke="#0055DC" stroke-miterlimit="10"/>
<path d="M435.653 168.818H346.271V194.536H435.653V168.818Z" fill="#C5EBF5" stroke="#0055DC" stroke-miterlimit="10"/>
<path d="M431.791 190.919V172.453H350.129V190.919H431.791Z" fill="white"/>
<path d="M356.756 177.659H354.781V179.656H356.756V177.659Z" fill="#0055DC"/>
<path d="M356.756 183.682H354.781V185.679H356.756V183.682Z" fill="#0055DC"/>
<path d="M359.469 180.508H357.494V182.505H359.469V180.508Z" fill="#0055DC"/>
<path d="M361.872 177.659H359.896V179.656H361.872V177.659Z" fill="#0055DC"/>
<path d="M361.872 183.682H359.896V185.679H361.872V183.682Z" fill="#0055DC"/>
<path d="M364.434 180.508H362.459V182.505H364.434V180.508Z" fill="#0055DC"/>
<path d="M367.458 177.659H365.482V179.656H367.458V177.659Z" fill="#0055DC"/>
<path d="M367.458 183.682H365.482V185.679H367.458V183.682Z" fill="#0055DC"/>
<path d="M370.022 180.508H368.047V182.505H370.022V180.508Z" fill="#0055DC"/>
<path d="M373.13 177.659H371.154V179.656H373.13V177.659Z" fill="#0055DC"/>
<path d="M373.13 183.682H371.154V185.679H373.13V183.682Z" fill="#0055DC"/>
<path d="M375.542 180.508H373.566V182.505H375.542V180.508Z" fill="#0055DC"/>
<path d="M378.253 177.659H376.277V179.656H378.253V177.659Z" fill="#0055DC"/>
<path d="M378.253 183.682H376.277V185.679H378.253V183.682Z" fill="#0055DC"/>
<path d="M380.51 180.508H378.535V182.505H380.51V180.508Z" fill="#0055DC"/>
<path d="M383.368 177.659H381.393V179.656H383.368V177.659Z" fill="#0055DC"/>
<path d="M383.368 183.682H381.393V185.679H383.368V183.682Z" fill="#0055DC"/>
<path d="M385.475 180.508H383.5V182.505H385.475V180.508Z" fill="#0055DC"/>
<path d="M425.302 184.158C426.658 184.158 427.757 183.047 427.757 181.677C427.757 180.306 426.658 179.195 425.302 179.195C423.947 179.195 422.848 180.306 422.848 181.677C422.848 183.047 423.947 184.158 425.302 184.158Z" fill="#0055DC"/>
<path d="M418.243 181.677H392.227" stroke="#0055DC" stroke-width="0.89" stroke-miterlimit="10"/>
<path fill-rule="evenodd" clip-rule="evenodd" d="M188.847 77.8696H31.9932C29.9032 77.8762 27.9003 78.7161 26.4193 80.2071C24.9384 81.698 24.0992 83.7195 24.084 85.8323V190.099H196.748V85.8323C196.737 83.7195 195.9 81.6968 194.42 80.2052C192.94 78.7135 190.936 77.874 188.847 77.8696V77.8696Z" fill="#C5EBF5" stroke="#0055DC" stroke-miterlimit="10"/>
<path d="M110.414 85.6653C111.181 85.6653 111.802 85.0369 111.802 84.2616C111.802 83.4864 111.181 82.8579 110.414 82.8579C109.647 82.8579 109.025 83.4864 109.025 84.2616C109.025 85.0369 109.647 85.6653 110.414 85.6653Z" fill="#0055DC"/>
<path fill-rule="evenodd" clip-rule="evenodd" d="M203.647 198.147H17.2151C7.52902 198.147 1 196.643 1 195.214V190.869C1.02499 190.639 1.13891 190.428 1.31693 190.283C1.49495 190.137 1.72265 190.068 1.95043 190.092H218.92C219.148 190.068 219.376 190.137 219.554 190.283C219.732 190.428 219.846 190.639 219.871 190.869V195.381C219.862 196.517 214.813 198.147 203.647 198.147Z" fill="white"/>
<path fill-rule="evenodd" clip-rule="evenodd" d="M203.647 198.147H17.2151C7.52902 198.147 1 196.643 1 195.214V190.869C1.02499 190.639 1.13891 190.428 1.31693 190.283C1.49495 190.137 1.72265 190.068 1.95043 190.092H218.92C219.148 190.068 219.376 190.137 219.554 190.283C219.732 190.428 219.846 190.639 219.871 190.869V195.381C219.862 196.517 214.813 198.147 203.647 198.147Z" stroke="#0055DC" stroke-miterlimit="10"/>
<path d="M219.871 190.869C219.846 190.639 219.732 190.428 219.554 190.283C219.376 190.137 219.148 190.068 218.92 190.092H1.95043C1.72265 190.068 1.49495 190.137 1.31693 190.283C1.13891 190.428 1.02499 190.639 1 190.869V195.047H219.871V190.869Z" fill="#C5EBF5"/>
<path fill-rule="evenodd" clip-rule="evenodd" d="M203.647 198.147H17.2151C7.52902 198.147 1 196.643 1 195.214V190.869C1.02499 190.639 1.13891 190.428 1.31693 190.283C1.49495 190.137 1.72265 190.068 1.95043 190.092H218.92C219.148 190.068 219.376 190.137 219.554 190.283C219.732 190.428 219.846 190.639 219.871 190.869V195.381C219.862 196.517 214.813 198.147 203.647 198.147Z" stroke="#0055DC" stroke-miterlimit="10"/>
<path d="M189.5 90.3447H31.043V183.7H189.5V90.3447Z" fill="white"/>
<path fill-rule="evenodd" clip-rule="evenodd" d="M134.134 190.408V191.394C134.134 192.104 132.762 192.313 131.729 192.313H89.1747C88.0838 192.313 86.6953 192.104 86.6953 191.394V190.408" fill="#0055DC"/>
<path d="M189.217 90.4941H31.2812V97.1116H189.217V90.4941Z" fill="#0055DC" stroke="#0055DC" stroke-width="0.75" stroke-miterlimit="10"/>
<path d="M36.5621 95.0316C37.2285 95.0316 37.7687 94.4854 37.7687 93.8117C37.7687 93.138 37.2285 92.5918 36.5621 92.5918C35.8957 92.5918 35.3555 93.138 35.3555 93.8117C35.3555 94.4854 35.8957 95.0316 36.5621 95.0316Z" fill="white"/>
<path d="M40.4547 95.0316C41.1211 95.0316 41.6613 94.4854 41.6613 93.8117C41.6613 93.138 41.1211 92.5918 40.4547 92.5918C39.7883 92.5918 39.248 93.138 39.248 93.8117C39.248 94.4854 39.7883 95.0316 40.4547 95.0316Z" fill="white"/>
<path d="M44.357 95.0316C45.0234 95.0316 45.5636 94.4854 45.5636 93.8117C45.5636 93.138 45.0234 92.5918 44.357 92.5918C43.6906 92.5918 43.1504 93.138 43.1504 93.8117C43.1504 94.4854 43.6906 95.0316 44.357 95.0316Z" fill="white"/>
<path d="M108.769 155.215C121.385 155.215 131.612 144.876 131.612 132.121C131.612 119.367 121.385 109.027 108.769 109.027C96.1531 109.027 85.9258 119.367 85.9258 132.121C85.9258 144.876 96.1531 155.215 108.769 155.215Z" fill="white"/>
<path d="M116.215 127.952C115.936 126.83 115.742 125.687 115.636 124.535C111.421 124.919 104.992 122.546 103.289 121.193" stroke="#0055DC" stroke-width="0.41" stroke-miterlimit="10"/>
<path d="M118.407 124.484C118.886 125.236 121.341 125.721 121.341 127.952C121.341 130.183 119.473 131.294 119.209 133.082C118.944 134.87 119.531 135.898 122.514 137.586C126.779 139.992 126.242 146.61 120.167 147.963C120.167 147.963 113.597 145.323 112.266 143.234V137.084L103.746 136.984V143.526C101.779 145.674 95.9108 148.398 93.6216 149.734C93.1391 149.228 92.7688 148.623 92.5351 147.96C92.3014 147.297 92.2097 146.592 92.2662 145.891C92.3488 143.384 98.6547 141.429 98.6547 140.042C98.6547 138.655 95.5307 135.447 95.5307 133.116C95.5307 130.784 99.539 128.754 99.539 124.2C99.539 116.43 107.332 116.597 108.051 116.597C116.523 116.564 117.614 123.239 118.407 124.484Z" fill="#003682" stroke="#003682" stroke-width="0.41" stroke-miterlimit="10"/>
<path d="M100.232 146.108C101.51 145.403 102.693 144.536 103.753 143.527V136.984L112.266 137.085V143.234C112.662 144.003 114.125 144.905 116.084 146.05C113.558 147.44 110.736 148.191 107.861 148.239C105.171 148.26 102.53 147.522 100.232 146.108V146.108Z" fill="#C5EBF5" stroke="#003682" stroke-width="0.5" stroke-miterlimit="10"/>
<mask id="mask0" mask-type="alpha" maskUnits="userSpaceOnUse" x="85" y="109" width="47" height="47">
<path d="M108.769 155.215C121.385 155.215 131.612 144.876 131.612 132.121C131.612 119.367 121.385 109.027 108.769 109.027C96.1531 109.027 85.9258 119.367 85.9258 132.121C85.9258 144.876 96.1531 155.215 108.769 155.215Z" fill="#E2F5FA"/>
</mask>
<g mask="url(#mask0)">
<path d="M116.133 146.1C113.593 147.494 110.759 148.251 107.869 148.306C105.171 148.324 102.521 147.583 100.216 146.167C95.009 149.133 87.5957 151.757 87.5957 158.784H128.538C128.53 151.882 116.133 146.1 116.133 146.1Z" fill="#0055DC" stroke="#003682" stroke-width="0.41" stroke-linecap="round" stroke-linejoin="round"/>
</g>
<path d="M116.471 125.102C116.356 128.397 115.601 131.636 114.248 134.636C113.19 136.674 110.471 138.939 108.009 138.939C105.546 138.939 103.099 136.674 101.761 134.636C100.108 132.046 99.5373 127.333 99.5373 125.102C99.5019 123.956 99.6947 122.813 100.104 121.744C100.514 120.674 101.132 119.698 101.922 118.874C102.711 118.05 103.657 117.396 104.702 116.948C105.747 116.501 106.87 116.271 108.004 116.271C109.139 116.271 110.262 116.501 111.307 116.948C112.352 117.396 113.298 118.05 114.087 118.874C114.877 119.698 115.495 120.674 115.905 121.744C116.314 122.813 116.507 123.956 116.471 125.102Z" fill="#C5EBF5" stroke="#003682" stroke-width="0.5" stroke-miterlimit="10"/>
<path d="M116.215 127.952C115.936 126.83 115.743 125.687 115.637 124.535C111.422 124.919 104.992 122.546 103.289 121.193C103.289 121.193 101.711 127.451 99.8349 128.713C99.6484 127.524 99.549 126.323 99.5373 125.12C99.5019 123.973 99.6947 122.831 100.104 121.761C100.514 120.691 101.132 119.716 101.922 118.892C102.711 118.068 103.657 117.413 104.702 116.966C105.747 116.519 106.87 116.288 108.004 116.288C109.139 116.288 110.262 116.519 111.307 116.966C112.352 117.413 113.298 118.068 114.087 118.892C114.877 119.716 115.495 120.691 115.905 121.761C116.314 122.831 116.507 123.973 116.471 125.12C116.457 126.066 116.371 127.01 116.215 127.944V127.952Z" fill="#003682" stroke="#003682" stroke-width="0.52" stroke-miterlimit="10"/>
<path d="M116.094 128.72C116.14 128.536 116.223 128.363 116.338 128.213C116.454 128.063 116.6 127.939 116.765 127.85C116.931 127.76 117.114 127.706 117.301 127.692C117.489 127.678 117.677 127.704 117.854 127.768C118.921 128.094 118.317 132.004 115.375 131.862C115.67 130.829 115.91 129.78 116.094 128.72V128.72Z" fill="#C5EBF5" stroke="#003682" stroke-width="0.5" stroke-miterlimit="10"/>
<path d="M99.8361 128.72C99.7849 128.533 99.6959 128.358 99.5749 128.207C99.4538 128.056 99.3032 127.932 99.1326 127.843C98.9619 127.753 98.7748 127.701 98.583 127.688C98.3912 127.675 98.1988 127.702 98.0179 127.768C97.084 128.152 97.5468 132.004 100.497 131.862C100.209 130.83 99.9883 129.781 99.8361 128.72V128.72Z" fill="#C5EBF5" stroke="#003682" stroke-width="0.5" stroke-miterlimit="10"/>
<path d="M108.769 155.215C121.385 155.215 131.612 144.876 131.612 132.121C131.612 119.367 121.385 109.027 108.769 109.027C96.1531 109.027 85.9258 119.367 85.9258 132.121C85.9258 144.876 96.1531 155.215 108.769 155.215Z" stroke="#0055DC" stroke-miterlimit="10"/>
<path d="M128.439 159.752H89.1079C88.6104 159.752 88.207 160.16 88.207 160.663V173.297C88.207 173.8 88.6104 174.207 89.1079 174.207H128.439C128.937 174.207 129.34 173.8 129.34 173.297V160.663C129.34 160.16 128.937 159.752 128.439 159.752Z" fill="white" stroke="#0055DC" stroke-miterlimit="10"/>
<path d="M99.2727 167.49L97.4463 168.618L97.1074 168.016L98.9917 166.98L97.1074 165.944L97.4463 165.342L99.2727 166.479L99.2232 164.306H99.9091L99.8595 166.479L101.694 165.342L102.033 165.944L100.141 166.98L102.033 168.016L101.694 168.618L99.8595 167.49L99.9091 169.654H99.2232L99.2727 167.49Z" fill="#F6821F"/>
<path d="M105.416 167.49L103.581 168.618L103.242 168.016L105.135 166.98L103.242 165.944L103.581 165.342L105.416 166.479L105.358 164.306H106.052L106.003 166.479L107.829 165.342L108.168 165.944L106.275 166.98L108.168 168.016L107.829 168.618L106.003 167.49L106.052 169.654H105.358L105.416 167.49Z" fill="#F6821F"/>
<path d="M111.546 167.49L109.679 168.618L109.34 168.016L111.232 166.98L109.34 165.944L109.679 165.342L111.513 166.479L111.464 164.306H112.158L112.108 166.479L113.935 165.342L114.282 165.944L112.389 166.98L114.282 168.016L113.935 168.618L112.158 167.49L112.208 169.654H111.522L111.546 167.49Z" fill="#F6821F"/>
<path d="M117.679 167.49L115.853 168.618L115.514 168.016L117.398 166.98L115.514 165.944L115.853 165.342L117.679 166.479L117.629 164.306H118.315L118.266 166.479L120.101 165.342L120.439 165.944L118.547 166.98L120.439 168.016L120.101 168.618L118.266 167.49L118.315 169.654H117.629L117.679 167.49Z" fill="#F6821F"/>
</svg>
