<svg id="Layer_1" data-name="Layer 1" xmlns="http://www.w3.org/2000/svg" viewBox="0 0 80 80"><defs><style>.cls-1{fill:#d5d5d5}.cls-2{fill:#333}</style></defs><title>youtube</title><circle class="cls-1" cx="40" cy="40" r="40"/><path class="cls-2" d="M32.16 40A7.85 7.85 0 1 1 40 47.85 7.85 7.85 0 0 1 32.16 40m-4.25 0A12.09 12.09 0 1 0 40 27.91 12.09 12.09 0 0 0 27.91 40m21.83-12.57a2.83 2.83 0 1 0 2.83-2.82 2.83 2.83 0 0 0-2.83 2.82M30.49 59.16a13.26 13.26 0 0 1-4.37-.81 7.77 7.77 0 0 1-4.47-4.47 13.2 13.2 0 0 1-.81-4.37c-.11-2.48-.13-3.22-.13-9.51s0-7 .13-9.51a13.2 13.2 0 0 1 .81-4.37 7.77 7.77 0 0 1 4.47-4.47 13 13 0 0 1 4.37-.81c2.48-.11 3.23-.14 9.51-.14s7 0 9.51.14a12.93 12.93 0 0 1 4.37.81 7.77 7.77 0 0 1 4.47 4.47 12.93 12.93 0 0 1 .81 4.37c.12 2.48.14 3.22.14 9.51s0 7-.14 9.51a12.93 12.93 0 0 1-.81 4.37 7.43 7.43 0 0 1-1.76 2.71 7.35 7.35 0 0 1-2.71 1.76 13.2 13.2 0 0 1-4.37.81c-2.48.11-3.22.14-9.51.14s-7 0-9.51-.14m-.19-42.55a17.26 17.26 0 0 0-5.72 1.09 12 12 0 0 0-6.88 6.88 17.26 17.26 0 0 0-1.09 5.72c-.12 2.51-.15 3.31-.15 9.7s0 7.19.15 9.7a17.26 17.26 0 0 0 1.09 5.72 12 12 0 0 0 6.88 6.88 17.26 17.26 0 0 0 5.72 1.09c2.51.12 3.31.15 9.7.15s7.2 0 9.7-.15a17.26 17.26 0 0 0 5.72-1.09 12 12 0 0 0 6.88-6.88 17.49 17.49 0 0 0 1.1-5.72c.11-2.51.14-3.31.14-9.7s0-7.19-.14-9.7a17.49 17.49 0 0 0-1.1-5.72 12 12 0 0 0-6.88-6.88 17.25 17.25 0 0 0-5.71-1.09c-2.51-.12-3.32-.15-9.71-.15s-7.19 0-9.7.15"/></svg>