<svg viewBox="0 0 80 80" xmlns="http://www.w3.org/2000/svg"><circle cx="40" cy="40" fill="#d5d5d5" r="40"/><path d="M60.14 49.87A5.27 5.27 0 0 1 55.63 54a140.44 140.44 0 0 1-15.63.55A140.35 140.35 0 0 1 24.37 54a5.26 5.26 0 0 1-4.51-4.1 44.58 44.58 0 0 1-.73-9.9 44.58 44.58 0 0 1 .74-9.87 5.27 5.27 0 0 1 4.5-4.1A140.62 140.62 0 0 1 40 25.45a140.53 140.53 0 0 1 15.64.55 5.28 5.28 0 0 1 4.51 4.1 44.58 44.58 0 0 1 .72 9.9 44.58 44.58 0 0 1-.73 9.87z" fill="#333"/><path d="M34.61 46.48l13.27-6.88C43.43 37.28 39 35 34.61 32.68z" fill="#d5d5d5"/></svg>